<svg width="30" height="30" viewBox="0 0 30 30" fill="orange" xmlns="http://www.w3.org/2000/svg">
<path d="M16 16C17.5913 16 19.1174 15.3679 20.2426 14.2426C21.3679 13.1174 22 11.5913 22 10C22 8.4087 21.3679 6.88258 20.2426 5.75736C19.1174 4.63214 17.5913 4 16 4C14.4087 4 12.8826 4.63214 11.7574 5.75736C10.6321 6.88258 10 8.4087 10 10C10 11.5913 10.6321 13.1174 11.7574 14.2426C12.8826 15.3679 14.4087 16 16 16V16ZM20 10C20 11.0609 19.5786 12.0783 18.8284 12.8284C18.0783 13.5786 17.0609 14 16 14C14.9391 14 13.9217 13.5786 13.1716 12.8284C12.4214 12.0783 12 11.0609 12 10C12 8.93913 12.4214 7.92172 13.1716 7.17157C13.9217 6.42143 14.9391 6 16 6C17.0609 6 18.0783 6.42143 18.8284 7.17157C19.5786 7.92172 20 8.93913 20 10V10ZM28 26C28 28 26 28 26 28H6C6 28 4 28 4 26C4 24 6 18 16 18C26 18 28 24 28 26ZM26 25.992C25.998 25.5 25.692 24.02 24.336 22.664C23.032 21.36 20.578 20 16 20C11.42 20 8.968 21.36 7.664 22.664C6.308 24.02 6.004 25.5 6 25.992H26Z" fill="orange"/>
</svg>
